<?xml version="1.0" encoding="UTF-8"?>
<svg width="24px" height="24px" viewBox="0 0 24 24" version="1.1" xmlns="http://www.w3.org/2000/svg" xmlns:xlink="http://www.w3.org/1999/xlink">
    <!-- Generator: Sketch 59.1 (86144) - https://sketch.com -->
    <title>3.Icons/Filled/retransmission</title>
    <desc>Created with Sketch.</desc>
    <g id="3.Icons/Filled/retransmission" stroke="none" stroke-width="1" fill="none" fill-rule="evenodd">
        <g id="编组" fill="#000000">
            <path d="M4.84409412,7.67235188 L6.25883998,9.08690306 C5.48386988,9.8164084 5,10.8516973 5,12 C5,14.209139 6.790861,16 9,16 L13.447,15.998 L11.6424582,14.3333333 L13.0876666,13 L16.7006875,16.3333333 C17.0997708,16.7015232 17.0997708,17.2984768 16.7006875,17.6666667 L13.0876666,21 L11.6424582,19.6666667 L13.447,18 L9,18 C5.6862915,18 3,15.3137085 3,12 C3,10.299465 3.70744985,8.76416386 4.84409412,7.67235188 Z M12.3575418,9.66666667 L10.9123334,11 L7.29931246,7.66666667 C6.90022918,7.29847683 6.90022918,6.70152317 7.29931246,6.33333333 L10.9123334,3 L12.3575418,4.33333333 L10.551,6 L15,6 C18.3137085,6 21,8.6862915 21,12 C21,13.700535 20.2925501,15.2358361 19.1559059,16.3276481 L17.74116,14.9130969 C18.5161301,14.1835916 19,13.1483027 19,12 C19,9.790861 17.209139,8 15,8 L10.552,8 L12.3575418,9.66666667 Z" id="形状结合"></path>
        </g>
    </g>
</svg>