<?xml version="1.0" encoding="UTF-8"?>
<svg width="26px" height="24px" viewBox="0 0 26 24" version="1.1" xmlns="http://www.w3.org/2000/svg" xmlns:xlink="http://www.w3.org/1999/xlink">
    <!-- Generator: Sketch 56.2 (81672) - https://sketch.com -->
    <title>3.Icons/Filled/home</title>
    <desc>Created with Sketch.</desc>
    <g id="视觉稿---小程序：小程序菜单优化1.3" stroke="none" stroke-width="1" fill="none" fill-rule="evenodd">
        <g id="开发版-备份" transform="translate(-95.000000, -496.000000)" fill="#10AEFF">
            <g id="3.Icons/Filled/home" transform="translate(92.000000, 491.500000)">
                <g id="icon31">
                    <path d="M18,28 L18,22.6666667 L14,22.6666667 L14,28 L9.33333333,28 C8.59695367,28 8,27.4030463 8,26.6666667 L8,18.666675 L4.55228346,18.666675 C4.1986616,18.666675 3.85952317,18.5261993 3.60947468,18.276151 C3.08877548,17.7554521 3.08877524,16.9112321 3.60947415,16.3905329 L15.0571912,4.94280824 C15.5778904,4.42210933 16.4221104,4.42210957 16.9428088,4.94280931 L28.3905259,16.3905329 C28.6405742,16.6405814 28.7810499,16.9797198 28.7810499,17.3333417 C28.7810499,18.0697213 28.1840962,18.666675 27.4477165,18.666675 L24,18.666675 L24,26.6666667 C24,27.4030463 23.4030463,28 22.6666667,28 L18,28 Z" id="图标颜色"></path>
                </g>
            </g>
        </g>
    </g>
</svg>