<?xml version="1.0" encoding="UTF-8"?>
<svg width="24px" height="24px" viewBox="0 0 24 24" version="1.1" xmlns="http://www.w3.org/2000/svg" xmlns:xlink="http://www.w3.org/1999/xlink">
    <!-- Generator: Sketch 54.1 (76490) - https://sketchapp.com -->
    <title>Icons/Filled/news_off</title>
    <desc>Created with Sketch.</desc>
    <g id="Icons/Filled/news_off" stroke="none" stroke-width="1" fill="none" fill-rule="evenodd" fill-opacity="0.9">
        <g id="icon27" fill="#000000">
            <path d="M5.94505644,5.94505644 L4.06066017,4.06066017 L5.12132034,3 L16.3753314,14.2540111 C16.4458791,14.1881921 16.524197,14.1294269 16.6093524,14.0793553 L19.9389313,12.1917047 L21.0560213,16.3102152 C21.2403954,16.9966336 20.8282651,17.7045026 20.1341509,17.8868325 L20.0345678,17.9132474 L22.0918831,19.9705627 L21.0312229,21.0312229 L8.03809408,8.03809408 L5.94505644,5.94505644 Z M7.80754559,9.92886593 C7.69994651,10.083457 7.5585956,10.2160261 7.39064857,10.3147793 L4.06106966,12.20243 L2.94397967,8.07319419 C2.75960559,7.38677578 3.17173588,6.67890679 3.86585005,6.49657689 L4.26846169,6.38978204 L7.80754559,9.92886593 Z M8.0413806,15.2055106 L8.03053507,19.0022624 L3.86585005,17.8975578 C3.17173588,17.7152279 2.75960559,17.0073589 2.94397967,16.3209405 L4.06106966,12.20243 L7.39064857,14.0900806 C7.79193332,14.3153117 8.0413806,14.7443232 8.0413806,15.2055106 Z M12.661578,17.0931612 L15.9803114,19.0022624 L12.9218709,22.0160683 C12.4121308,22.5201568 11.5878702,22.5201568 11.0781301,22.0160683 L8.03053507,19.0022624 L11.3492684,17.0931612 C11.7505532,16.8572049 12.2494478,16.8572049 12.661578,17.0931612 Z M15.9586204,9.18862412 L15.9694659,5.39187225 L20.1341509,6.49657689 C20.8282651,6.67890679 21.2403954,7.38677578 21.0560213,8.07319419 L19.9389313,12.1917047 L16.6093524,10.304054 C16.2080676,10.078823 15.9586204,9.6498115 15.9586204,9.18862412 Z M11.3492684,7.30097348 L8.03053507,5.39187225 L11.0781301,2.37806639 C11.5878702,1.87397787 12.4121308,1.87397787 12.9218709,2.37806639 L15.9694659,5.39187225 L12.6507325,7.30097348 C12.2494478,7.53692981 11.7505532,7.53692981 11.3492684,7.30097348 Z" id="形状结合"></path>
        </g>
    </g>
</svg>