<?xml version="1.0" encoding="UTF-8"?>
<svg width="72px" height="72px" viewBox="0 0 72 72" version="1.1" xmlns="http://www.w3.org/2000/svg" xmlns:xlink="http://www.w3.org/1999/xlink">
    <!-- Generator: Sketch 50.2 (55047) - http://www.bohemiancoding.com/sketch -->
    <title>multitaskBar_miniProgram_logo</title>
    <desc>Created with Sketch.</desc>
    <defs></defs>
    <g id="multitaskBar_miniProgram_logo" stroke="none" stroke-width="1" fill="none" fill-rule="evenodd" opacity="0.300000012">
        <g id="Icons/Dark/*star" fill="#000000" fill-rule="nonzero">
            <path d="M49,9 C45.693,9 42.614,9.879 40,11.374 C35.205,14.118 32,18.968 32,24.5 L32,47.5 C32,51.642 27.97,55 23,55 C18.029,55 14,51.642 14,47.5 C14,44.552 16.046,42.009 19.015,40.783 C19.229,40.695 19.446,40.611 19.669,40.537 C21.538,39.787 23.141,38.379 23.736,36.744 C24.615,34.33 22.979,32.374 20.083,32.374 C19.361,32.374 18.629,32.496 17.923,32.716 C17.92,32.717 17.917,32.718 17.913,32.719 C13.726,33.921 10.231,36.557 8.133,40 C6.778,42.225 6,44.78 6,47.5 C6,56.047 13.626,63 23,63 C26.307,63 29.386,62.121 32,60.626 C36.795,57.882 40,53.032 40,47.5 L40,24.5 C40,20.358 44.029,17 49,17 C53.97,17 58,20.358 58,24.5 C58,27.574 55.781,30.216 52.604,31.374 C50.555,32.061 48.876,33.544 48.236,35.301 C47.362,37.703 48.99,39.651 51.873,39.651 C52.526,39.651 53.186,39.539 53.829,39.357 C53.934,39.328 54.038,39.296 54.142,39.265 C58.304,38.056 61.778,35.428 63.866,32 C65.222,29.776 66,27.22 66,24.5 C66,15.953 58.374,9 49,9" id="Mask"></path>
        </g>
    </g>
</svg>