<?xml version="1.0" encoding="UTF-8"?>
<svg width="24px" height="24px" viewBox="0 0 24 24" version="1.1" xmlns="http://www.w3.org/2000/svg" xmlns:xlink="http://www.w3.org/1999/xlink">
    <!-- Generator: Sketch 55.2 (78181) - https://sketchapp.com -->
    <title>Icons_Outlined_DelEmoji</title>
    <desc>Created with Sketch.</desc>
    <g id="Icons_Outlined_DelEmoji" stroke="none" stroke-width="1" fill="none" fill-rule="evenodd">
        <g id="编组">
            <rect id="矩形" x="0" y="0" width="24" height="24"></rect>
            <g id="Group" transform="translate(2.000000, 4.000000)" fill="#000000" fill-opacity="0.9">
                <path d="M12,7 L15,4 L16,5 L13,8 L16,11 L15,12 L12,9 L9,12 L8,11 L11,8 L8,5 L9,4 L12,7 Z M6.46968634,0 L18.5,0 C19.3284271,0 20,0.671572875 20,1.5 L20,14.5 C20,15.3284271 19.3284271,16 18.5,16 L6.46968634,16 C6.00243008,16 5.56186102,15.7822564 5.27806189,15.4110605 L0.30846515,8.91106046 C-0.102702246,8.37327275 -0.102702246,7.62672725 0.30846515,7.08893954 L5.27806189,0.58893954 C5.56186102,0.217743552 6.00243008,0 6.46968634,0 Z M6.46968634,1.2 C6.37623509,1.2 6.28812127,1.24354871 6.23136145,1.31778791 L1.26176471,7.81778791 C1.17953123,7.92534545 1.17953123,8.07465455 1.26176471,8.18221209 L6.23136145,14.6822121 C6.28812127,14.7564513 6.37623509,14.8 6.46968634,14.8 L18.5,14.8 C18.6656854,14.8 18.8,14.6656854 18.8,14.5 L18.8,1.5 C18.8,1.33431458 18.6656854,1.2 18.5,1.2 L6.46968634,1.2 Z" id="形状结合"></path>
            </g>
        </g>
    </g>
</svg>