<?xml version="1.0" encoding="UTF-8"?>
<svg width="24px" height="24px" viewBox="0 0 24 24" version="1.1" xmlns="http://www.w3.org/2000/svg" xmlns:xlink="http://www.w3.org/1999/xlink">
    <!-- Generator: Sketch 60 (88103) - https://sketch.com -->
    <title>keyboard_delete_pressed</title>
    <desc>Created with Sketch.</desc>
    <g id="keyboard_delete_pressed" stroke="none" stroke-width="1" fill="none" fill-rule="evenodd" fill-opacity="0.9">
        <path d="M20.75,4 C21.3022847,4 21.75,4.44771525 21.75,5 L21.75,19 C21.75,19.5522847 21.3022847,20 20.75,20 L8.25,20 C7.9352427,20 7.63885438,19.8518058 7.45,19.6 L2.2,12.6 C1.93333333,12.2444444 1.93333333,11.7555556 2.2,11.4 L7.45,4.4 C7.63885438,4.14819416 7.9352427,4 8.25,4 L20.75,4 Z M11.1742641,8.57573593 C10.9399495,8.34142136 10.5600505,8.34142136 10.3257359,8.57573593 C10.0914214,8.81005051 10.0914214,9.18994949 10.3257359,9.42426407 L10.3257359,9.42426407 L12.901,12 L10.3257359,14.5757359 C10.0914214,14.8100505 10.0914214,15.1899495 10.3257359,15.4242641 C10.5600505,15.6585786 10.9399495,15.6585786 11.1742641,15.4242641 L11.1742641,15.4242641 L13.75,12.849 L16.3257359,15.4242641 C16.5600505,15.6585786 16.9399495,15.6585786 17.1742641,15.4242641 C17.4085786,15.1899495 17.4085786,14.8100505 17.1742641,14.5757359 L17.1742641,14.5757359 L14.599,12 L17.1742641,9.42426407 C17.4085786,9.18994949 17.4085786,8.81005051 17.1742641,8.57573593 C16.9399495,8.34142136 16.5600505,8.34142136 16.3257359,8.57573593 L16.3257359,8.57573593 L13.75,11.151 Z" id="DETELE" fill="#000000"></path>
    </g>
</svg>