<?xml version="1.0" encoding="UTF-8"?>
<svg width="24px" height="24px" viewBox="0 0 24 24" version="1.1" xmlns="http://www.w3.org/2000/svg" xmlns:xlink="http://www.w3.org/1999/xlink">
    <!-- Generator: Sketch 60 (88103) - https://sketch.com -->
    <title>keyboard_delete</title>
    <desc>Created with Sketch.</desc>
    <g id="keyboard_delete" stroke="none" stroke-width="1" fill="none" fill-rule="evenodd" opacity="0.900000036">
        <g id="编组" transform="translate(2.000000, 4.000000)" fill="#000000" fill-rule="nonzero">
            <path d="M18.75,1.75859327e-13 C19.3022847,1.75859327e-13 19.75,0.44771525 19.75,1 L19.75,15 C19.75,15.5522847 19.3022847,16 18.75,16 L6.25,16 C5.9352427,16 5.63885438,15.8518058 5.45,15.6 L0.2,8.6 C-0.0666666667,8.24444444 -0.0666666667,7.75555556 0.2,7.4 L5.45,0.4 C5.63885438,0.148194157 5.9352427,1.75859327e-13 6.25,1.75859327e-13 L18.75,1.75859327e-13 Z M18.75,1 L6.25,1 L1,8 L6.25,15 L18.75,15 L18.75,1 Z" id="DETELE"></path>
            <path d="M9.17426407,4.57573593 L11.75,7.151 L14.3257359,4.57573593 C14.5600505,4.34142136 14.9399495,4.34142136 15.1742641,4.57573593 C15.4085786,4.81005051 15.4085786,5.18994949 15.1742641,5.42426407 L12.599,8 L15.1742641,10.5757359 C15.4085786,10.8100505 15.4085786,11.1899495 15.1742641,11.4242641 C14.9399495,11.6585786 14.5600505,11.6585786 14.3257359,11.4242641 L11.75,8.849 L9.17426407,11.4242641 C8.93994949,11.6585786 8.56005051,11.6585786 8.32573593,11.4242641 C8.09142136,11.1899495 8.09142136,10.8100505 8.32573593,10.5757359 L10.901,8 L8.32573593,5.42426407 C8.09142136,5.18994949 8.09142136,4.81005051 8.32573593,4.57573593 C8.56005051,4.34142136 8.93994949,4.34142136 9.17426407,4.57573593 Z" id="Combined-Shape"></path>
        </g>
    </g>
</svg>