<?xml version="1.0" encoding="utf-8"?>	<svg height="18px" version="1.1" viewBox="0 0 18 18" width="18px" xmlns="http://www.w3.org/2000/svg" xmlns:xlink="http://www.w3.org/1999/xlink">		
    		<!-- Generator: Sketch 53.2 (72643) - https://sketchapp.com -->		
    		<title>delete</title>		
    		<desc>Created with Sketch.</desc>		
    		<g fill="none" fill-rule="evenodd" id="190226-过kink后修改稿" stroke="none" stroke-width="1">			
        			<g fill="#FFFFFF" id="Icons/Outlined/delete">				
            				<g id="icon39" transform="translate(2.250000, 2.250000)">					
                					<path d="M2.8301644,2.54999771 L3.43942937,12.7856512 C3.45829623,13.1026144 3.72084504,13.35 4.03836926,13.35 L9.46163074,13.35 C9.77915496,13.35 10.0417038,13.1026144 10.0605706,12.7856512 L10.6698356,2.54999771 L2.8301644,2.54999771 Z M11.5714286,2.54999775 L10.9589805,12.8391279 C10.9118133,13.631536 10.2554413,14.25 9.46163074,14.25 L4.03836926,14.25 C3.24455871,14.25 2.58818667,13.631536 2.54101954,12.8391279 L1.92857142,2.54999775 L0.375,2.54999775 L0.375,2.02499771 C0.375,1.81789093 0.542893219,1.64999771 0.75,1.64999771 L12.75,1.64999771 C12.9571068,1.64999771 13.125,1.81789093 13.125,2.02499771 L13.125,2.54999775 L11.5714286,2.54999775 Z M8.25,2.04641768e-05 C8.45710678,2.04641768e-05 8.625,0.167913683 8.625,0.375020464 L8.625,0.900018175 L4.875,0.900018175 L4.875,0.375020464 C4.875,0.167913683 5.04289322,2.04641768e-05 5.25,2.04641768e-05 L8.25,2.04641768e-05 Z M4.875,4.5 L5.77500916,4.5 L6.15000916,11.25 L5.25,11.25 L4.875,4.5 Z M7.72499084,4.5 L8.625,4.5 L8.25,11.25 L7.34999084,11.25 L7.72499084,4.5 Z" id="图标颜色"/>					
            				</g>				
        			</g>			
    		</g>		
	</svg>