<?xml version="1.0" encoding="UTF-8"?>
<svg width="24px" height="24px" viewBox="0 0 24 24" version="1.1" xmlns="http://www.w3.org/2000/svg" xmlns:xlink="http://www.w3.org/1999/xlink">
    <!-- Generator: Sketch 59.1 (86144) - https://sketch.com -->
    <title>icons/样式/键盘删除</title>
    <desc>Created with Sketch.</desc>
    <g id="icons/样式/键盘删除" stroke="none" stroke-width="1" fill="none" fill-rule="evenodd">
        <rect id="矩形" x="0" y="0" width="24" height="24"></rect>
        <path d="M21,4 C21.5522847,4 22,4.44771525 22,5 L22,19 C22,19.5522847 21.5522847,20 21,20 L8.5,20 C8.1852427,20 7.88885438,19.8518058 7.7,19.6 L2.45,12.6 C2.18333333,12.2444444 2.18333333,11.7555556 2.45,11.4 L7.7,4.4 C7.88885438,4.14819416 8.1852427,4 8.5,4 L21,4 Z M11.4242641,8.57573593 C11.1899495,8.34142136 10.8100505,8.34142136 10.5757359,8.57573593 C10.3414214,8.81005051 10.3414214,9.18994949 10.5757359,9.42426407 L10.5757359,9.42426407 L13.151,12 L10.5757359,14.5757359 C10.3414214,14.8100505 10.3414214,15.1899495 10.5757359,15.4242641 C10.8100505,15.6585786 11.1899495,15.6585786 11.4242641,15.4242641 L11.4242641,15.4242641 L14,12.849 L16.5757359,15.4242641 C16.8100505,15.6585786 17.1899495,15.6585786 17.4242641,15.4242641 C17.6585786,15.1899495 17.6585786,14.8100505 17.4242641,14.5757359 L17.4242641,14.5757359 L14.849,12 L17.4242641,9.42426407 C17.6585786,9.18994949 17.6585786,8.81005051 17.4242641,8.57573593 C17.1899495,8.34142136 16.8100505,8.34142136 16.5757359,8.57573593 L16.5757359,8.57573593 L14,11.151 Z" id="DETELE" fill-opacity="0.9" fill="#000000"></path>
    </g>
</svg>