<?xml version="1.0" encoding="UTF-8"?>
<svg width="24px" height="24px" viewBox="0 0 24 24" version="1.1" xmlns="http://www.w3.org/2000/svg" xmlns:xlink="http://www.w3.org/1999/xlink">
    <!-- Generator: Sketch 63.1 (92452) - https://sketch.com -->
    <title>关闭评论</title>
    <desc>Created with Sketch.</desc>
    <g id="关闭评论" stroke="none" stroke-width="1" fill="none" fill-rule="evenodd">
        <g id="Group-22" fill="#000000">
            <path d="M3.41942788,4.11648818 L4.502,5.2 L4,5.2 C3.83431458,5.2 3.7,5.33431458 3.7,5.5 L3.7,16 C3.7,16.1656854 3.83431458,16.3 4,16.3 L8.7,16.3 L8.7,18.6 L11.0029437,16.3 L15.602,16.299 L16.803,17.5 L11.5,17.5 L9.20710678,19.79 C8.81658249,20.1805243 8.18341751,20.1805243 7.79289322,19.79 C7.60535684,19.6024636 7.5,19.3552165 7.5,19.09 L7.5,17.5 L4,17.5 C3.17157288,17.5 2.5,16.8284271 2.5,16 L2.5,5.5 C2.5,4.87741265 2.87930198,4.34341602 3.41942788,4.11648818 Z M20,4 C20.8284271,4 21.5,4.67157288 21.5,5.5 L21.5,16 C21.5,16.8284271 20.8284271,17.5 20,17.5 L18.5,17.5 L17.299,16.299 L20,16.3 C20.1656854,16.3 20.3,16.1656854 20.3,16 L20.3,5.5 C20.3,5.33431458 20.1656854,5.2 20,5.2 L6.199,5.2 L4.999,4 L20,4 Z" id="Combined-Shape"></path>
            <polygon id="Path" points="3.84852868 2.84852817 4.69705685 2 21.4249789 18.7279221 20.5764507 19.5764502"></polygon>
        </g>
    </g>
</svg>