<?xml version="1.0" encoding="UTF-8"?>
<svg width="24px" height="24px" viewBox="0 0 24 24" version="1.1" xmlns="http://www.w3.org/2000/svg" xmlns:xlink="http://www.w3.org/1999/xlink">
    <!-- Generator: Sketch 58 (84663) - https://sketch.com -->
    <title>z</title>
    <desc>Created with Sketch.</desc>
    <g id="z" stroke="none" stroke-width="1" fill="none" fill-rule="evenodd" fill-opacity="0.9">
        <g id="Group" fill="#000000">
            <path d="M19.1082812,8.06206059 C18.8571262,7.60931832 19.020545,7.03869684 19.4732872,6.78754182 C19.9260295,6.53638681 20.496651,6.69980556 20.747806,7.15254782 C22.8947431,11.022704 22.2459984,15.8953928 19.0701693,19.071222 C15.1651319,22.9762593 8.83381539,22.9762593 4.92877802,19.071222 C1.02374066,15.1661846 1.02374066,8.83486809 4.92877802,4.92983073 C8.10460716,1.7540016 12.977296,1.10525693 16.8474522,3.25219401 C17.3001944,3.50334903 17.4636132,4.07397051 17.2124582,4.52671277 C16.9613032,4.97945504 16.3906817,5.14287379 15.9379394,4.89171877 C12.7947181,3.14804283 8.83486627,3.67525334 6.25453345,6.25558616 C3.08169059,9.42842902 3.08169059,14.5726237 6.25453345,17.7454665 C9.42737631,20.9183094 14.571571,20.9183094 17.7444138,17.7454665 C20.3247467,15.1651337 20.8519572,11.2052819 19.1082812,8.06206059 Z" id="Path"></path>
        </g>
    </g>
</svg>