<?xml version="1.0" encoding="UTF-8"?>
<svg width="24px" height="24px" viewBox="0 0 24 24" version="1.1" xmlns="http://www.w3.org/2000/svg" xmlns:xlink="http://www.w3.org/1999/xlink">
    <!-- Generator: Sketch 57.1 (83088) - https://sketch.com -->
    <title>icons_outlined_qrcord</title>
    <desc>Created with Sketch.</desc>
    <g id="icons_outlined_qrcord" stroke="none" stroke-width="1" fill="none" fill-rule="evenodd">
        <path d="M3.7,14 L3.7,21 L2.5,21 L2.5,14 L3.7,14 Z M17.7,14 L17.7,21 L16.5,21 L16.5,14 L17.7,14 Z M10.7,14 L10.7,21 L9.5,21 L9.5,14 L10.7,14 Z M7.2,14 L7.2,21 L6,21 L6,14 L7.2,14 Z M21.2,14 L21.2,21 L20,21 L20,14 L21.2,14 Z M14.2,14 L14.2,21 L13,21 L13,14 L14.2,14 Z M17.35,2.65 C20.028581,2.65 22.2,4.82141896 22.2,7.5 C22.2,10.178581 20.028581,12.35 17.35,12.35 C14.671419,12.35 12.5,10.178581 12.5,7.5 C12.5,4.82141896 14.671419,2.65 17.35,2.65 Z M10.5,3 C11.0522847,3 11.5,3.44771525 11.5,4 L11.5,11 C11.5,11.5522847 11.0522847,12 10.5,12 L3.5,12 C2.94771525,12 2.5,11.5522847 2.5,11 L2.5,4 C2.5,3.44771525 2.94771525,3 3.5,3 L10.5,3 Z M17.35,3.85 C15.3341607,3.85 13.7,5.48416066 13.7,7.5 C13.7,9.51583934 15.3341607,11.15 17.35,11.15 C19.3658393,11.15 21,9.51583934 21,7.5 C21,5.48416066 19.3658393,3.85 17.35,3.85 Z M10.3,4.2 L3.7,4.2 L3.7,10.8 L10.3,10.8 L10.3,4.2 Z M18.5,5 C19.3284271,5 20,5.67157288 20,6.5 C20,6.86388838 19.8693257,7.2088958 19.6364464,7.47905075 C19.4561478,7.68820868 19.140431,7.71160384 18.931273,7.53130528 C18.7221151,7.35100673 18.6987199,7.03528987 18.8790185,6.82613193 C18.9568531,6.73583875 19,6.62192202 19,6.5 C19,6.22385763 18.7761424,6 18.5,6 C18.2545401,6 18.0503916,6.17687516 18.0080557,6.41012437 L18,6.5 L18,8.5 C18,9.32842712 17.3284271,10 16.5,10 C15.6715729,10 15,9.32842712 15,8.5 C15,8.13611162 15.1306743,7.7911042 15.3635536,7.52094925 C15.5438522,7.31179132 15.859569,7.28839616 16.068727,7.46869472 C16.2778849,7.64899327 16.3012801,7.96471013 16.1209815,8.17386807 C16.0431469,8.26416125 16,8.37807798 16,8.5 C16,8.77614237 16.2238576,9 16.5,9 C16.7454599,9 16.9496084,8.82312484 16.9919443,8.58987563 L17,8.5 L17,6.50698853 C17,5.67157288 17.6715729,5 18.5,5 Z M8.25,6.25 L8.25,8.75 L5.75,8.75 L5.75,6.25 L8.25,6.25 Z" id="形状结合" fill-opacity="0.9" fill="#FFFFFF"></path>
        <g id="编组" transform="translate(15.000000, 5.000000)"></g>
        <rect id="矩形" x="0" y="0" width="24" height="24"></rect>
    </g>
</svg>