<?xml version="1.0" encoding="UTF-8"?>
<svg width="16px" height="16px" viewBox="0 0 16 16" version="1.1" xmlns="http://www.w3.org/2000/svg" xmlns:xlink="http://www.w3.org/1999/xlink">
    <!-- Generator: Sketch 58 (84663) - https://sketch.com -->
    <title>icons_outlined_shop</title>
    <desc>Created with Sketch.</desc>
    <g id="icons_outlined_shop" stroke="none" stroke-width="1" fill="none" fill-rule="evenodd">
        <g id="Group" transform="translate(1.500000, 0.000000)" fill="#000000">
            <path d="M0.96,4.96 L0.96,14.4064927 C0.96,14.7554155 1.24473736,15.04 1.59524822,15.04 L11.2047518,15.04 C11.5550411,15.04 11.84,14.7555238 11.84,14.4064927 L11.84,4.96 L0.96,4.96 Z M0,4.80598718 C0,4.36085275 0.355704689,4 0.800697327,4 L11.9993027,4 C12.4415156,4 12.8,4.35913616 12.8,4.80598718 L12.8,14.4064927 C12.8,15.2865625 12.084389,16 11.2047518,16 L1.59524822,16 C0.714216957,16 0,15.2852821 0,14.4064927 L0,4.80598718 Z" id="Rectangle-701" fill-rule="nonzero"></path>
            <path d="M6.4,0 C8.10636943,0 9.50079599,1.33558623 9.59493436,3.01841339 L9.59999943,3.2 L9.59999943,7.2 L8.63999939,7.2 L8.63999748,3.19999752 C8.63999748,1.9628797 7.63711534,0.959997559 6.39999752,0.959997559 C5.1628797,0.959997559 4.15999756,1.9628797 4.15999756,3.19999752 L4.159,3.2 L4.16000004,3.2 L4.16000004,7.2 L3.2,7.2 L3.2,3.2 C3.2,1.4326888 4.6326888,0 6.4,0 Z" id="Combined-Shape"></path>
        </g>
    </g>
</svg>