<?xml version="1.0" encoding="UTF-8"?>
<svg width="16px" height="16px" viewBox="0 0 16 16" version="1.1" xmlns="http://www.w3.org/2000/svg" xmlns:xlink="http://www.w3.org/1999/xlink">
    <!-- Generator: Sketch 58 (84663) - https://sketch.com -->
    <title>icons_outlined_novel</title>
    <desc>Created with Sketch.</desc>
    <g id="icons_outlined_novel" stroke="none" stroke-width="1" fill="none" fill-rule="evenodd">
        <path d="M15.5279073,3.91004952 C15.4901107,3.89620637 15.1391427,3.77634489 14.4179707,3.77634489 C13.398476,3.77634489 11.7020178,4.02045714 9.18719648,5.05227875 C10.1955548,4.09034819 12.0519734,2.81171323 14.9062888,2.6540363 C15.0922344,2.64390716 15.2349839,2.48487968 15.2245224,2.2991788 C15.2143983,2.11280264 15.0487009,1.9639043 14.8695047,1.98112383 C12.018564,2.13812549 10.1057879,3.31107977 8.97425335,4.31386453 C9.70588681,3.12875527 11.2150495,1.63031799 14.2978317,0.916213696 C14.4793902,0.874008951 14.5921049,0.693035002 14.5505962,0.511385778 C14.50875,0.329736553 14.3292163,0.216965473 14.1459705,0.258832581 C10.1304232,1.18902517 8.58245148,3.35463507 7.99120526,4.7227441 C7.39962156,3.35463507 5.85164985,1.18902517 1.83610256,0.258832581 C1.65454407,0.216627835 1.47366052,0.329736553 1.43147686,0.511385778 C1.38963066,0.693035002 1.50268288,0.874008951 1.68424137,0.916213696 C4.82371834,1.64314823 6.32815651,3.1574545 7.04359144,4.34526486 C5.91644395,3.33606498 3.99354384,2.13981368 1.11256836,1.98112383 C0.925272898,1.96525485 0.767674731,2.11314028 0.757550652,2.2991788 C0.747089103,2.48487968 0.889501151,2.64390716 1.07544674,2.6540363 C3.96418401,2.81373905 5.83376397,4.1224238 6.83334806,5.08773074 C4.27263096,4.02315824 2.57212312,3.77600725 1.55904026,3.77600725 C0.848667365,3.77600725 0.505461079,3.89721928 0.468676925,3.9107248 C0.326939816,3.9640716 0.237847919,4.10587954 0.251346691,4.25646607 L1.06464772,13.3841708 C1.08017131,13.558392 1.22629552,13.6914213 1.40042968,13.6914213 C1.40211703,13.6914213 1.40414184,13.6914213 1.40616666,13.6914213 L1.55026605,13.6900708 C4.93339586,13.6900708 7.74012809,15.6666034 7.76813804,15.6868617 C7.77454996,15.6919263 7.78332416,15.6899004 7.79007355,15.6939521 C7.79749787,15.698679 7.80121004,15.7077953 7.8093093,15.7121845 C7.85824235,15.7375074 7.91122503,15.75 7.96454518,15.75 C8.01719039,15.75 8.07017307,15.7375074 8.11876865,15.7121845 C8.12653045,15.7081329 8.12990514,15.6993543 8.13766694,15.694965 C8.14441632,15.6909134 8.15285305,15.6926015 8.15926497,15.6878746 C8.18761239,15.667954 11.029104,13.6900708 14.4139211,13.6900708 L14.5580205,13.6914213 C14.5600453,13.6914213 14.5620701,13.6914213 14.56342,13.6914213 C14.7372167,13.6914213 14.8833409,13.5590673 14.899202,13.3855213 L15.7486122,4.25815426 C15.7624485,4.1055419 15.6716692,3.96238341 15.5279073,3.91004952 Z M0.949570688,4.49112446 C1.08995792,4.46985327 1.29176457,4.45027026 1.55904026,4.45027026 C2.64096686,4.45027026 4.56555432,4.7521186 7.62741334,6.1715486 L7.62741334,14.7958351 C6.63795333,14.2053063 4.38264595,13.0610513 1.7092141,13.0168207 L0.949570688,4.49112446 Z M14.2559855,13.0171583 C11.5751293,13.0610513 9.29687401,14.2107085 8.30133955,14.7992115 L8.30133955,6.1715486 C11.364211,4.7521186 13.3141086,4.45027026 14.4176333,4.45027026 C14.695033,4.45027026 14.904264,4.47052854 15.0490384,4.49213737 L14.2559855,13.0171583 Z" id="Shape" stroke="#000000" stroke-width="0.3" fill="#000000" fill-rule="nonzero"></path>
    </g>
</svg>