<?xml version="1.0" encoding="UTF-8"?>
<svg width="40px" height="40px" viewBox="0 0 40 40" version="1.1" xmlns="http://www.w3.org/2000/svg" xmlns:xlink="http://www.w3.org/1999/xlink">
    <!-- Generator: Sketch 58 (84663) - https://sketch.com -->
    <title>logo 40x40</title>
    <desc>Created with Sketch.</desc>
    <g id="logo-40x40" stroke="none" stroke-width="1" fill="none" fill-rule="evenodd">
        <g id="common_icons_searchlogo" transform="translate(1.000000, 1.000000)" fill="#FA5151">
            <path d="M17.5186567,10.0186567 L20.4291045,3.9738806 C20.7649254,3.24626866 20.7649254,2.51865672 20.4850746,1.84701493 C20.2052239,1.17537313 19.6455224,0.671641791 18.8619403,0.391791045 L18.2462687,0.167910448 C17.9664179,0.0559701493 17.6865672,0 17.4067164,0 C16.1753731,0 15.1679104,0.839552239 14.8880597,2.07089552 L13.6007463,8.61940299 C13.2649254,10.1865672 13.7686567,11.641791 14.6641791,11.9776119 C14.7761194,12.0335821 14.8880597,12.0335821 15.0559701,12.0335821 C15.8955224,12.0895522 16.9029851,11.25 17.5186567,10.0186567 Z M10.6343284,14.2723881 C10.7462687,13.3208955 9.57089552,12.3134328 8.00373134,11.9776119 L3.19029851,10.8022388 C2.96641791,10.7462687 2.74253731,10.7462687 2.51865672,10.7462687 C1.23134328,10.7462687 0.167910448,11.6977612 0.0559701493,12.9850746 L0,13.6567164 C0,14.4402985 0.279850746,15.1679104 0.78358209,15.6716418 C1.23134328,16.119403 1.84701493,16.3432836 2.51865672,16.3432836 C2.57462687,16.3432836 2.63059701,16.3432836 2.68656716,16.3432836 L7.6119403,16.119403 C9.23507463,15.9514925 10.5223881,15.1679104 10.6343284,14.2723881 Z M11.7537313,19.141791 C10.8022388,18.8619403 9.51492537,19.7574627 8.89925373,21.2126866 L4.19776119,31.511194 C3.8619403,32.238806 3.8619403,32.9664179 4.19776119,33.6380597 C4.53358209,34.3097015 5.09328358,34.8134328 5.87686567,35.0373134 L6.49253731,35.261194 L6.54850746,35.261194 C6.66044776,35.261194 6.77238806,35.261194 6.88432836,35.261194 C8.22761194,35.261194 9.73880597,34.6455224 10.0746269,33.358209 L12.8171642,22.3880597 C13.0970149,20.8768657 12.7052239,19.4216418 11.7537313,19.141791 Z M19.9813433,20.3731343 C19.2537313,19.5895522 18.3022388,19.0858209 17.5186567,19.0858209 C17.1828358,19.0858209 16.9029851,19.1977612 16.6791045,19.3656716 C15.9514925,19.9813433 16.0634328,21.4925373 17.0149254,22.8358209 L25.9141791,35.8208955 C26.4179104,36.6044776 27.2574627,36.9962687 28.0970149,36.9962687 C28.7126866,36.9962687 29.3283582,36.7723881 29.8320896,36.380597 L30.3358209,35.988806 C30.9514925,35.4850746 31.2873134,34.8134328 31.3432836,34.0298507 C31.3992537,33.2462687 31.119403,32.5186567 30.6156716,31.9589552 L19.9813433,20.3731343 Z M37.4440299,13.8246269 C37.3320896,12.2014925 35.988806,11.0261194 34.3656716,11.25 L21.1567164,13.2089552 C19.5895522,13.4328358 18.358209,14.3843284 18.4141791,15.391791 C18.4701493,16.3992537 19.7574627,17.1828358 21.380597,17.1828358 L34.4216418,17.3507463 L34.4776119,17.3507463 C35.3171642,17.3507463 36.1567164,16.9589552 36.7723881,16.3432836 C37.2761194,15.7835821 37.5,15.1119403 37.5,14.4402985 L37.4440299,13.8246269 Z" id="图标颜色"></path>
        </g>
    </g>
</svg>