<?xml version="1.0" encoding="utf-8"?>	<svg height="72px" version="1.1" viewBox="0 0 72 72" width="72px" xmlns="http://www.w3.org/2000/svg" xmlns:xlink="http://www.w3.org/1999/xlink">		
    		<!-- Generator: Sketch 53.2 (72643) - https://sketchapp.com -->		
    		<title>方形默认题图</title>		
    		<desc>Created with Sketch.</desc>		
    		<g fill="none" fill-rule="evenodd" id="暗夜模式素材输出" stroke="none" stroke-width="1">			
        			<g id="方形默认头像">				
            				<g id="分组-4">					
                					<rect fill="#F2F2F2" height="71.9084712" id="Rectangle-14" width="71.9084712" x="3.55271368e-14" y="3.55271368e-14"/>					
                					<path d="M49.8786295,46.8704099 C49.8620207,47.0248783 49.8449225,47.1822303 49.8273349,47.3424658 L40.6708158,47.3424658 L20.9655584,47.3424658 L20.9655584,46.638706 C20.8063613,46.3855069 20.7123288,46.0806443 20.7123288,45.7525732 L20.7123288,25.2611254 C20.7123288,24.3796659 21.3692726,23.6712329 22.1796539,23.6712329 L48.8340447,23.6712329 C49.6277671,23.6712329 50.3013699,24.383052 50.3013699,25.2611254 L50.3013699,45.7525732 C50.3013699,46.1894008 50.1400293,46.5837343 49.8786295,46.8704099 Z M47.3424658,38.0408724 L47.3424658,26.630137 L23.6712329,26.630137 L23.6712329,37.9555873 L29.7271633,32.974328 C30.4463306,32.3827824 31.6012599,32.4114717 32.2944878,33.0309804 L39.2543322,39.2507004 L42.8026116,36.181707 C43.5212525,35.5601369 44.6646437,35.5727641 45.3622851,36.2095168 L47.3424658,38.0408724 Z" fill="#CCCCCC" fill-rule="nonzero" id="Rectangle-40"/>					
            				</g>				
        			</g>			
    		</g>		
	</svg>