<?xml version="1.0" encoding="UTF-8"?>
<svg width="16px" height="16px" viewBox="0 0 16 16" version="1.1" xmlns="http://www.w3.org/2000/svg" xmlns:xlink="http://www.w3.org/1999/xlink">
    <!-- Generator: Sketch 58 (84663) - https://sketch.com -->
    <title>icons_outlined_game</title>
    <desc>Created with Sketch.</desc>
    <g id="icons_outlined_game" stroke="none" stroke-width="1" fill="none" fill-rule="evenodd">
        <g id="Group-8" fill="#000000" fill-rule="nonzero">
            <g id="Group" transform="translate(0.000000, 0.500000)">
                <path d="M10.4573546,8.14051274 L10.8917572,8.38357045 C10.2118833,9.59866887 8.50473808,9.93433932 7.08204878,9.20206186 C5.64920633,8.46415255 4.98587364,6.8870964 5.67333477,5.65803222 C6.35323358,4.44288933 8.060432,4.10727215 9.48301663,4.83969722 C10.9160838,5.57761329 11.5794208,7.15455011 10.8917572,8.38357045 L10.4573546,8.14051274 Z M10.4573546,8.14051274 L10.0229519,7.89745503 C10.4097757,7.20610776 9.99663483,6.22395681 9.02727975,5.72481572 C8.04775614,5.22050292 6.93673094,5.43891874 6.54217425,6.14408654 C6.1554529,6.83547889 6.56864858,7.81784084 7.5377627,8.31693154 C8.51733176,8.821129 9.62836925,8.60266929 10.0229519,7.89745503 L10.4573546,8.14051274 Z M10.5329398,4.54442247 L10.205144,4.91903246 C7.71036609,2.73602173 4.11855737,2.65850682 2.19328188,4.69825149 C0.279213054,6.7259615 0.697896147,10.1300431 3.18264842,12.304418 C5.67755961,14.4873941 9.26951128,14.5650028 11.1946789,12.5252246 C13.1086697,10.4974356 12.689986,7.09334886 10.205144,4.91903246 L10.5329398,4.54442247 Z M10.5329398,4.54442247 L10.8607356,4.16981247 C13.7471895,6.69555224 14.2451039,10.7438206 11.918677,13.2085676 C9.60364136,15.6614237 5.40377029,15.5706801 2.52705806,13.053639 C-0.359312273,10.5278133 -0.857226473,6.47954723 1.46930976,4.01488099 C3.7844455,1.56209654 7.98417654,1.65273104 10.8607356,4.16981247 L10.5329398,4.54442247 Z" id="oval-2"></path>
                <path d="M11.875115,3.06343586 C12.1466789,4.01875382 13.0515331,4.61366163 13.8679509,4.41714179 C14.667662,4.22464342 15.1248573,3.32845267 14.8574424,2.38724694 C14.5860349,1.43211687 13.681036,0.83709196 12.864654,1.03358063 C12.064873,1.22623685 11.6077251,2.12231781 11.875115,3.06343586 Z M12.7481274,0.549634085 L12.6316347,0.0656793669 C13.9911242,-0.261563198 15.403624,0.667120059 15.8150905,2.11514221 C16.2304999,3.57723647 15.4772456,5.05375996 14.1009363,5.38505122 C12.7414383,5.71229583 11.3291479,4.78376761 10.9174805,3.33558838 C10.5020839,1.87353924 11.2552835,0.397185084 12.6315668,0.0656957222 L12.7481274,0.549634085 Z" id="oval-1"></path>
            </g>
        </g>
    </g>
</svg>