<?xml version="1.0" encoding="UTF-8"?>
<svg width="16px" height="16px" viewBox="0 0 16 16" version="1.1" xmlns="http://www.w3.org/2000/svg" xmlns:xlink="http://www.w3.org/1999/xlink">
    <!-- Generator: Sketch 59 (86127) - https://sketch.com -->
    <title>搜一搜logo备份</title>
    <desc>Created with Sketch.</desc>
    <g id="搜一搜logo备份" stroke="none" stroke-width="1" fill="none" fill-rule="evenodd" fill-opacity="0.9">
        <path d="M8.05594391,8.772048 L13.3838393,14.6463942 C13.5693558,14.8509381 13.5539311,15.1671446 13.3493872,15.3526612 C13.3442121,15.3573548 13.3389392,15.3619396 13.333572,15.3664123 L12.7782412,15.8291879 C12.5661027,16.00597 12.2508204,15.9773079 12.0740383,15.7651695 C12.0661959,15.7557585 12.0587019,15.7460625 12.0515716,15.7361011 L7.4132124,9.25604037 C7.29015219,9.08411802 7.32697317,8.84537896 7.49611427,8.71852314 C7.66856508,8.58918504 7.91112512,8.61237601 8.05594391,8.772048 Z M5.21391306,8.90870657 C5.42663097,8.97252194 5.55139013,9.19251105 5.4969703,9.40782429 L3.97828797,15.416524 C3.91062159,15.6842475 3.63873437,15.8464258 3.37101087,15.7787594 C3.35692256,15.7751987 3.34299617,15.7710254 3.32927138,15.7662516 L2.59723047,15.5116286 C2.33641488,15.4209102 2.19852391,15.1359355 2.28924238,14.8751199 C2.29262118,14.8654059 2.2962989,14.8557984 2.30027028,14.8463112 L4.6802051,9.16091136 C4.76737508,8.95267195 4.99768548,8.8438383 5.21391306,8.90870657 Z M15.9593961,5.79677266 C15.9611475,5.81064915 15.9623159,5.82459302 15.9628982,5.83856747 L15.9944216,6.59512971 C16.0059175,6.87103269 15.7915733,7.10401556 15.5156703,7.11551151 L15.4900476,7.11592187 L15.4900476,7.11592187 L8.48505054,7.04856613 C8.27440046,7.04654064 8.10470126,6.87520188 8.10470126,6.66454205 C8.10470126,6.4471774 8.26642049,6.26376402 8.48207425,6.23654558 L15.4007215,5.36331826 C15.6746904,5.32873966 15.9248175,5.52280381 15.9593961,5.79677266 Z M0.609365891,5.48075103 C0.630020461,5.48254708 0.650543327,5.48562605 0.670815627,5.48997011 L4.00332732,6.20407976 C4.21616193,6.24968718 4.36072787,6.44795602 4.33906927,6.66454205 C4.31737864,6.88144829 4.13678195,7.04779051 3.91882742,7.05161427 L0.519825882,7.11124588 C0.243725993,7.11608974 0.0159760881,6.89619328 0.0111322304,6.62009339 C0.0108272948,6.60271206 0.0114290376,6.58532665 0.0129350073,6.568008 L0.0679307888,5.93555651 C0.0918528968,5.66045227 0.334261649,5.45682892 0.609365891,5.48075103 Z M7.59077079,0.367503905 C7.61075117,0.371807372 7.63044889,0.377331902 7.64975306,0.384046397 L8.35280083,0.62858475 C8.61361641,0.719303215 8.75150738,1.00427787 8.66078891,1.26509346 C8.65630039,1.27799795 8.65128483,1.29071303 8.64575484,1.3032067 L6.97726571,5.07275623 C6.88473547,5.28180602 6.64334839,5.38012587 6.43108704,5.29522133 C6.21142511,5.20735656 6.08716417,4.97387031 6.13697819,4.74259095 L6.99670186,0.751016757 C7.05484531,0.481065003 7.32081903,0.30936045 7.59077079,0.367503905 Z" id="图标颜色" fill="#000000"></path>
    </g>
</svg>