<?xml version="1.0" encoding="UTF-8"?>
<svg width="16px" height="16px" viewBox="0 0 16 16" version="1.1" xmlns="http://www.w3.org/2000/svg" xmlns:xlink="http://www.w3.org/1999/xlink">
    <!-- Generator: Sketch 58 (84663) - https://sketch.com -->
    <title>icons_outlined_searchlogo</title>
    <desc>Created with Sketch.</desc>
    <g id="icons_outlined_searchlogo" stroke="none" stroke-width="1" fill="none" fill-rule="evenodd">
        <g id="icons_outlined_searchlogo_wide" fill="#000000" fill-rule="nonzero">
            <path d="M7.475,4.383 L8.717,1.804 C8.86,1.492 8.86,1.182 8.74,0.896 C8.62,0.61 8.382,0.394 8.048,0.275 L7.785,0.179 C7.666,0.132 7.546,0.108 7.427,0.108 C6.902,0.108 6.472,0.466 6.352,0.991 L5.803,3.784 C5.66,4.453 5.875,5.074 6.257,5.219 C6.305,5.242 6.352,5.242 6.424,5.242 C6.782,5.266 7.212,4.907 7.475,4.383 Z" id="路径"></path>
            <path d="M4.537,6.197 C4.585,5.791 4.083,5.361 3.415,5.218 L1.361,4.717 C1.266,4.692 1.17,4.692 1.075,4.692 C0.526,4.692 0.072,5.098 0.024,5.647 L0,5.935 C0,6.269 0.12,6.58 0.334,6.795 C0.525,6.985 0.788,7.081 1.074,7.081 C1.098,7.081 1.122,7.081 1.146,7.081 L3.247,6.985 C3.94,6.913 4.49,6.579 4.537,6.197 Z" id="路径"></path>
            <path d="M5.015,8.274 C4.609,8.155 4.06,8.537 3.797,9.158 L1.791,13.553 C1.648,13.864 1.648,14.174 1.791,14.461 C1.935,14.746 2.173,14.963 2.507,15.059 L2.77,15.153 L2.794,15.153 C2.842,15.153 2.89,15.153 2.938,15.153 C3.511,15.153 4.156,14.891 4.299,14.342 L5.469,9.66 C5.588,9.015 5.421,8.394 5.015,8.274 Z" id="路径"></path>
            <path d="M8.525,8.801 C8.214,8.467 7.809,8.25 7.475,8.25 C7.332,8.25 7.212,8.299 7.117,8.37 C6.806,8.634 6.854,9.277 7.26,9.85 L11.057,15.39 C11.272,15.726 11.63,15.892 11.989,15.892 C12.253,15.892 12.514,15.796 12.729,15.63 L12.944,15.462 C13.208,15.245 13.35,14.96 13.375,14.624 C13.397,14.29 13.278,13.979 13.063,13.741 L8.525,8.801 Z" id="路径"></path>
            <path d="M15.977,6.007 C15.928,5.314 15.356,4.812 14.663,4.907 L9.028,5.743 C8.359,5.839 7.834,6.244 7.858,6.675 C7.881,7.105 8.431,7.439 9.124,7.439 L14.686,7.511 L14.71,7.511 C15.066,7.511 15.426,7.344 15.689,7.08 C15.904,6.843 16,6.556 16,6.269 L15.977,6.007 Z" id="路径"></path>
        </g>
    </g>
</svg>