<?xml version="1.0" encoding="UTF-8"?>
<svg width="16px" height="16px" viewBox="0 0 16 16" version="1.1" xmlns="http://www.w3.org/2000/svg" xmlns:xlink="http://www.w3.org/1999/xlink">
    <!-- Generator: Sketch 58 (84663) - https://sketch.com -->
    <title>icons_outlined_video</title>
    <desc>Created with Sketch.</desc>
    <g id="icons_outlined_video" stroke="none" stroke-width="1" fill="none" fill-rule="evenodd">
        <path d="M14.0706606,8.30505562 C14.166116,8.13468695 14.1053869,7.91919395 13.9350182,7.82373852 L2.54204426,1.44039789 C2.47604239,1.40341787 2.40165317,1.38399839 2.32599758,1.38399839 C2.08188817,1.38399839 1.88399839,1.58188817 1.88399839,1.82599758 L1.88399839,14.2485076 C1.88399839,14.3063037 1.89816551,14.3632187 1.92525961,14.4142706 C2.01680803,14.5867702 2.23086123,14.6523941 2.40336082,14.5608457 L13.9279439,8.4445564 C13.9879239,8.41272404 14.0374697,8.36429461 14.0706606,8.30505562 Z M2.81776851,15.341691 C2.21401996,15.6621105 1.46483376,15.4324269 1.14441429,14.8286783 C1.04958492,14.6499966 1,14.4507939 1,14.2485076 L1,1.82599758 C1,1.09366934 1.59366934,0.5 2.32599758,0.5 C2.55296436,0.5 2.776132,0.558258451 2.97413761,0.669198513 L14.3671116,7.05253915 C14.9634019,7.38663314 15.175954,8.14085865 14.84186,8.73714897 C14.725692,8.94448546 14.5522814,9.11398846 14.3423516,9.22540172 L2.81776851,15.341691 Z" id="Triangle-Copy" stroke="#000000" stroke-width="0.2" fill="#000000" fill-rule="nonzero"></path>
    </g>
</svg>