<?xml version="1.0" encoding="utf-8"?>	<svg height="72px" version="1.1" viewBox="0 0 72 72" width="72px" xmlns="http://www.w3.org/2000/svg" xmlns:xlink="http://www.w3.org/1999/xlink">		
    		<!-- Generator: Sketch 53.2 (72643) - https://sketchapp.com -->		
    		<title>Picture Copy 3</title>		
    		<desc>Created with Sketch.</desc>		
    		<g fill="none" fill-rule="evenodd" id="暗夜模式素材输出" stroke="none" stroke-width="1">			
        			<g id="Picture-Copy-3">				
            				<rect fill="#323232" height="72" id="Rectangle-14" width="72" x="0" y="0"/>				
            				<g fill="#606060" fill-rule="nonzero" id="Pic" transform="translate(21.000000, 24.000000)">					
                					<path d="M27,13.5692179 L27,3 L3,3 L3,13.4827483 L9.14004053,8.4323048 C9.86919631,7.83254328 11.0401663,7.86163107 11.7430224,8.48974397 L18.7995313,14.7958491 L22.3970923,11.6842307 C23.1257143,11.0540277 24.2849859,11.0668302 24.9923168,11.7124268 L27,13.5692179 Z M1.48770466,1.33781874e-14 L28.5122953,1.33781874e-14 C29.3170416,1.33781874e-14 30,0.721705503 30,1.61197436 L30,22.3880256 C30,23.2817277 29.3339319,24 28.5122953,24 L1.48770466,24 C0.682958364,24 0,23.2782945 0,22.3880256 L0,1.61197436 C0,0.718272328 0.666068066,1.33781874e-14 1.48770466,1.33781874e-14 Z" id="Rectangle-40"/>					
            				</g>				
        			</g>			
    		</g>		
	</svg>