<?xml version="1.0" encoding="UTF-8"?>
<svg width="16px" height="16px" viewBox="0 0 16 16" version="1.1" xmlns="http://www.w3.org/2000/svg" xmlns:xlink="http://www.w3.org/1999/xlink">
    <!-- Generator: Sketch 58 (84663) - https://sketch.com -->
    <title>icons_outlined_web</title>
    <desc>Created with Sketch.</desc>
    <g id="icons_outlined_web" stroke="none" stroke-width="1" fill="none" fill-rule="evenodd">
        <path d="M10.0462812,14.9278664 C10.6971135,14.245144 11.2330729,13.2325477 11.6034095,12.0025501 L14.0129978,12.0025501 C13.0837272,13.3937127 11.6853636,14.4426569 10.0462812,14.9278664 L10.0462812,14.9278664 Z M1.9873451,12.0025501 L4.41510732,12.0025501 C4.78647264,13.2359767 5.32414654,14.2509734 5.97737917,14.9340387 C4.32800964,14.4519153 2.92038761,13.4002279 1.9873451,12.0025501 L1.9873451,12.0025501 Z M5.97737917,1.06561842 C5.21956074,1.85807019 4.61707793,3.0959546 4.25085618,4.60507629 L1.62318076,4.60507629 C2.53084836,2.90735725 4.09654925,1.61563687 5.97737917,1.06561842 L5.97737917,1.06561842 Z M14.3768192,4.60507629 L11.7676607,4.60507629 C11.4021247,3.09972654 10.8013564,1.86424246 10.0462812,1.0721336 C11.916824,1.62558109 13.4729236,2.91421534 14.3768192,4.60507629 L14.3768192,4.60507629 Z M12.1421121,8.64037372 L15.1949888,8.64037372 C15.1099486,9.60393472 14.8349393,10.5119452 14.4076806,11.3304577 L11.7834343,11.3304577 C11.9792326,10.5044013 12.1037068,9.59981987 12.1421121,8.64037372 L12.1421121,8.64037372 Z M8.33621764,11.3304577 L8.33621764,8.64037372 L11.4700197,8.64037372 C11.4278425,9.59810535 11.2917095,10.5081733 11.082195,11.3304577 L8.33621764,11.3304577 Z M8.33621764,15.1949888 L8.33621764,12.0025501 L10.8898257,12.0025501 C10.3171756,13.7671354 9.38516179,14.9971331 8.33621764,15.1949888 L8.33621764,15.1949888 Z M7.66378236,12.0025501 L7.66378236,15.1929314 C6.6223821,14.9841027 5.69791219,13.7568483 5.1286911,12.0025501 L7.66378236,12.0025501 Z M4.54815418,8.64037372 L7.66378236,8.64037372 L7.66378236,11.3304577 L4.93632181,11.3304577 C4.7264644,10.5081733 4.59067431,9.59810535 4.54815418,8.64037372 L4.54815418,8.64037372 Z M7.66378236,5.27751156 L7.66378236,7.96759555 L4.53306639,7.96759555 C4.53512381,7.02220848 4.62976539,6.11351216 4.79744558,5.27751156 L7.66378236,5.27751156 Z M7.66378236,0.807068603 L7.66378236,4.60507629 L4.95106669,4.60507629 C5.49285544,2.53119127 6.50579465,1.03887189 7.66378236,0.807068603 L7.66378236,0.807068603 Z M8.33621764,4.60507629 L8.33621764,0.805011177 C9.50174925,1.02481281 10.5225753,2.52056123 11.0671072,4.60507629 L8.33621764,4.60507629 Z M11.4851075,7.96759555 L8.33621764,7.96759555 L8.33621764,5.27751156 L11.2207283,5.27751156 C11.3887514,6.11351216 11.4830501,7.02220848 11.4851075,7.96759555 L11.4851075,7.96759555 Z M15.2258502,7.96759555 L12.1578857,7.96759555 C12.1558283,7.01672201 12.0666732,6.11454088 11.9109946,5.27751156 L14.6909195,5.27751156 C15.0307377,6.10939731 15.2217354,7.0163791 15.2258502,7.96759555 L15.2258502,7.96759555 Z M1.30908045,5.27751156 L4.10717929,5.27751156 C3.95150075,6.11454088 3.86234564,7.01672201 3.86063112,7.96759555 L0.773806888,7.96759555 C0.778264644,7.0163791 0.969262322,6.10939731 1.30908045,5.27751156 L1.30908045,5.27751156 Z M0.804668273,8.64037372 L3.87606181,8.64037372 C3.91480999,9.59981987 4.03894134,10.5044013 4.23473967,11.3304577 L1.59197647,11.3304577 C1.16506066,10.5119452 0.889708531,9.60393472 0.804668273,8.64037372 L0.804668273,8.64037372 Z M15.8818261,8.36262126 C15.8852551,8.34273282 15.8934848,8.32490179 15.8934848,8.30398463 C15.8934848,8.29129718 15.8876554,8.28101005 15.8866267,8.2690084 C15.8897129,8.17882458 15.9,8.09069818 15.9,7.99982855 C15.9,6.87544545 15.6603099,5.80729865 15.2347657,4.83790828 C15.2268789,4.81321918 15.2155631,4.79195911 15.2025327,4.77035614 C13.9759641,2.04666753 11.2546759,0.139091087 8.08726914,0.104457755 C8.07115264,0.104114851 8.05606485,0.1 8.03994835,0.1 C8.03720511,0.1 8.03480478,0.101371617 8.03171864,0.101371617 C8.02108861,0.101371617 8.01080148,0.1 8.00017145,0.1 C7.99399918,0.1 7.98851271,0.100685809 7.98268333,0.100685809 C7.98096881,0.100685809 7.9799401,0.1 7.97822558,0.1 C7.96965297,0.1 7.96142327,0.102057426 7.95285066,0.102057426 C4.76795581,0.121260065 2.02917942,2.03500879 0.797810187,4.77035614 C0.784436921,4.79195911 0.77312108,4.81321918 0.764891377,4.83790828 C0.339690084,5.80729865 0.1,6.87544545 0.1,7.99982855 C0.1,8.08178267 0.10960132,8.16167936 0.112344554,8.24294767 C0.108229702,8.26352193 0.1,8.28238167 0.1,8.30398463 C0.1,8.34033249 0.109944224,8.3732513 0.120574256,8.40617011 C0.182982833,9.6269093 0.51525707,10.7770102 1.0721336,11.7909781 C1.07899169,11.8084663 1.09133624,11.8225253 1.10128047,11.8386418 C2.4454652,14.2454869 5.00970332,15.8801116 7.95285066,15.8975997 C7.96142327,15.8975997 7.96965297,15.9 7.97822558,15.9 C7.9799401,15.9 7.98096881,15.8993142 7.98268333,15.8993142 C7.98851271,15.8993142 7.99399918,15.9 8.00017145,15.9 C8.01080148,15.9 8.02108861,15.8986284 8.03171864,15.8982855 C8.03480478,15.8986284 8.03720511,15.9 8.03994835,15.9 C8.05606485,15.9 8.07115264,15.8958851 8.08726914,15.8955422 C11.0132713,15.8633092 13.5607071,14.234514 14.8987195,11.8386418 C14.9086638,11.8225253 14.9206654,11.8084663 14.9278664,11.7909781 C15.491601,10.7650086 15.8252469,9.59981987 15.8818261,8.36262126 L15.8818261,8.36262126 Z" id="Fill-1" stroke="#000000" stroke-width="0.2" fill="#000000"></path>
    </g>
</svg>