<?xml version="1.0" encoding="UTF-8"?>
<svg width="16px" height="16px" viewBox="0 0 16 16" version="1.1" xmlns="http://www.w3.org/2000/svg" xmlns:xlink="http://www.w3.org/1999/xlink">
    <!-- Generator: Sketch 58 (84663) - https://sketch.com -->
    <title>icons_outlined_wiki</title>
    <desc>Created with Sketch.</desc>
    <g id="icons_outlined_wiki" stroke="none" stroke-width="1" fill="none" fill-rule="evenodd">
        <path d="M12.7,0 C13.5836556,0 14.3,0.7163444 14.3,1.6 L14.3,14.4 C14.3,15.2836556 13.5836556,16 12.7,16 L1.5,16 L1.5,0 L12.7,0 Z M13.3413215,13.473722 C13.1449853,13.5597171 12.9280651,13.6074341 12.7,13.6074341 L2.459,13.607 L2.46,15.04 L12.7,15.04 C13.0534622,15.04 13.34,14.7534622 13.34,14.4 L13.3413215,13.473722 Z M3.9,0.959 L2.46,0.96 L2.459,12.647 L3.9,12.647 L3.9,0.959 Z M12.7,0.96 L4.86,0.959 L4.86,12.647 L12.7,12.6474341 C13.0534622,12.6474341 13.34,12.3608964 13.34,12.0074341 L13.34,1.6 C13.34,1.24653776 13.0534622,0.96 12.7,0.96 Z" id="Combined-Shape" fill="#000000" fill-rule="nonzero"></path>
    </g>
</svg>