<?xml version="1.0" encoding="UTF-8"?>
<svg width="16px" height="16px" viewBox="0 0 16 16" version="1.1" xmlns="http://www.w3.org/2000/svg" xmlns:xlink="http://www.w3.org/1999/xlink">
    <!-- Generator: Sketch 58 (84663) - https://sketch.com -->
    <title>icons_outlined_questions</title>
    <desc>Created with Sketch.</desc>
    <g id="icons_outlined_questions" stroke="none" stroke-width="1" fill="none" fill-rule="evenodd">
        <g id="Group" transform="translate(0.000000, 1.000000)" fill="#000000" fill-rule="nonzero" stroke="#000000" stroke-width="0.3">
            <path d="M10.9656109,3.5620665 L0.85520362,3.5620665 C0.760740436,3.5620665 0.684162896,3.63923383 0.684162896,3.73442455 L0.684162896,11.6075703 C0.684162896,11.7027611 0.760740436,11.7799284 0.85520362,11.7799284 L2.96470588,11.7799284 L2.96470588,13.1030314 L4.27769642,11.7799284 L10.9656109,11.7799284 C11.060074,11.7799284 11.1366516,11.7027611 11.1366516,11.6075703 L11.1366516,3.73442455 C11.1366516,3.63923383 11.060074,3.5620665 10.9656109,3.5620665 Z M11.8201855,8.217 L12.8470588,9.2515736 L12.8470588,7.92847059 L14.9565611,7.92847059 C15.0321316,7.92847059 15.0962554,7.8790835 15.118882,7.81059101 L15.1276018,7.75611253 L15.1276018,0.861790281 C15.1276018,0.785637701 15.0785922,0.721020093 15.0106232,0.698219153 L14.9565611,0.689432225 L5.83438914,0.689432225 C5.75881859,0.689432225 5.69469486,0.738819316 5.67206819,0.807311805 L5.66334842,0.861790281 L5.66318552,2.872 L10.9656109,2.87263427 C11.4379268,2.87263427 11.8208145,3.25847092 11.8208145,3.73442455 L11.8201855,8.217 Z M11.8208145,11.6075703 C11.8208145,12.083524 11.4379268,12.4693606 10.9656109,12.4693606 L4.56108597,12.4693606 L3.25382559,13.7866893 C3.03117373,14.011056 2.67018374,14.011056 2.44753188,13.7866893 C2.34061069,13.6789447 2.28054299,13.5328115 2.28054299,13.3804375 L2.28054299,12.4693606 L0.85520362,12.4693606 C0.382887703,12.4693606 3.73034936e-14,12.083524 3.73034936e-14,11.6075703 L3.73034936e-14,3.73442455 C3.73034936e-14,3.25847092 0.382887703,2.87263427 0.85520362,2.87263427 L4.97918552,2.872 L4.97918552,0.861790281 C4.97918552,0.422448469 5.30543303,0.0598927214 5.72711422,0.00671456975 L5.83438914,8.34887715e-14 L14.9565611,8.34887715e-14 C15.392545,8.34887715e-14 15.7523297,0.328760224 15.8051015,0.75368914 L15.8117647,0.861790281 L15.8117647,7.75611253 C15.8117647,8.19545434 15.4855172,8.55801009 15.063836,8.61118824 L14.9565611,8.61790281 L13.5312217,8.61790281 L13.5312217,9.52897971 C13.5312217,9.6813537 13.471154,9.82748686 13.3642328,9.93523154 C13.1663201,10.1346686 12.8591031,10.1568283 12.6369005,10.0017106 L12.5579391,9.93523154 L11.8201855,9.192 L11.8208145,11.6075703 Z" id="形状结合"></path>
        </g>
    </g>
</svg>