<?xml version="1.0" encoding="UTF-8"?>
<svg width="24px" height="24px" viewBox="0 0 24 24" version="1.1" xmlns="http://www.w3.org/2000/svg" xmlns:xlink="http://www.w3.org/1999/xlink">
    <!-- Generator: Sketch 59.1 (86144) - https://sketch.com -->
    <title>icons_filled_color_favorites</title>
    <desc>Created with Sketch.</desc>
    <g id="icons_filled_color_favorites" stroke="none" stroke-width="1" fill="none" fill-rule="evenodd">
        <g id="Icons_filled_voice1备份-12">
            <g id="Fav">
                <path d="M12,11.1339746 L3.80085813,6.40019783 C3.82136925,6.38681955 3.8420775,6.37414138 3.86295784,6.36220591 L11.1370422,2.20424535 C11.6136406,1.93181552 12.3867187,1.93202094 12.8629578,2.20424535 L20.1370422,6.36220591 C20.1579176,6.37413857 20.1786199,6.38682047 20.1991242,6.40020803 L12,11.1339746 Z" id="Path" fill="#00B1FE"></path>
                <path d="M20.9896226,7.67586436 C20.9964541,7.72902115 21,7.7814606 21,7.83272697 L21,16.167273 C21,16.7069896 20.6132813,17.3655697 20.1370422,17.6377941 L12.8629578,21.7957547 C12.8269153,21.816357 12.7891771,21.8354002 12.75,21.8528844 L12.75,12.4330127 L20.9896226,7.67586436 L20.9896226,7.67586436 Z" id="Path" fill="#FA5452"></path>
                <path d="M11.25,21.8528815 C11.210819,21.8353971 11.1730807,21.8163547 11.1370422,21.7957547 L3.86295784,17.6377941 C3.38635938,17.3653643 3,16.7024094 3,16.167273 L3,7.83272697 C3,7.7813482 3.00350454,7.72889226 3.01025723,7.675795 L11.25,12.4330127 L11.25,21.8528815 L11.25,21.8528815 Z" id="Path" fill="#FFC817"></path>
            </g>
        </g>
    </g>
</svg>